<?xml version="1.0" encoding="UTF-8" standalone="no"?>
<!-- Created with Inkscape (http://www.inkscape.org/) -->

<svg
   width="47.474426mm"
   height="49.603542mm"
   viewBox="0 0 47.474426 49.603542"
   version="1.1"
   id="svg1"
   xml:space="preserve"
   inkscape:version="1.4.3 (0d15f75, 2025-12-25)"
   sodipodi:docname="bB.svg"
   xmlns:inkscape="http://www.inkscape.org/namespaces/inkscape"
   xmlns:sodipodi="http://sodipodi.sourceforge.net/DTD/sodipodi-0.dtd"
   xmlns="http://www.w3.org/2000/svg"
   xmlns:svg="http://www.w3.org/2000/svg"><sodipodi:namedview
     id="namedview1"
     pagecolor="#ffffff"
     bordercolor="#000000"
     borderopacity="0"
     inkscape:showpageshadow="2"
     inkscape:pageopacity="0.0"
     inkscape:pagecheckerboard="0"
     inkscape:deskcolor="#d1d1d1"
     inkscape:document-units="mm"
     inkscape:zoom="2.3008982"
     inkscape:cx="298.36174"
     inkscape:cy="167.76057"
     inkscape:window-width="1470"
     inkscape:window-height="895"
     inkscape:window-x="0"
     inkscape:window-y="33"
     inkscape:window-maximized="0"
     inkscape:current-layer="g17"><inkscape:page
       x="0"
       y="0"
       width="47.474426"
       height="49.603542"
       id="page2"
       margin="0"
       bleed="0" /></sodipodi:namedview><defs
     id="defs1" /><g
     inkscape:label="Layer 1"
     inkscape:groupmode="layer"
     id="layer1"
     transform="translate(-63.23542,-14.816663)"><g
       transform="matrix(0.03527778,0,0,-0.03527778,-186.71315,209.58232)"
       fill="#000000"
       stroke="none"
       id="g17"><ellipse
         style="fill:#ffffff;fill-opacity:1;stroke:#ffffff;stroke-width:150;stroke-dasharray:none;stroke-opacity:1;paint-order:stroke fill markers"
         id="path2"
         cx="5334.6309"
         cy="7769.9492"
         transform="matrix(0,1,1,0,0,0)"
         rx="48.893944"
         ry="52.153542" /><path
         d="m 7688.8876,5426.9159 c -48,-30 -60,-99 -28,-160 l 15,-29 -46,-22 c -25,-12 -78,-54 -119,-94 -62,-61 -75,-79 -90,-129 -25,-86 -6,-161 68,-265 30,-42 31,-44 18,-90 -31,-109 -22,-137 51,-148 21,-4 38,-10 38,-13 0,-16 -98,-31 -196,-31 -122,0 -147,-9 -192,-71 l -31,-42 39,-58 c 22,-32 50,-65 61,-73 19,-13 24,-13 45,1 14,9 82,23 157,33 161,22 203,33 251,65 l 38,26 32,-21 c 57,-35 117,-51 259,-70 95,-12 144,-23 157,-35 14,-13 23,-14 39,-6 19,11 101,121 101,137 0,15 -54,77 -84,95 -25,15 -50,19 -133,19 -101,0 -203,16 -203,32 0,4 11,8 25,8 35,0 82,26 89,48 3,9 -3,48 -14,86 l -19,68 39,57 c 97,143 91,257 -21,370 -42,42 -125,101 -161,114 -15,5 -14,9 4,46 26,52 18,103 -22,143 -24,24 -36,28 -82,28 -35,0 -64,-7 -85,-19 z m 111,-67 c 19,-18 20,-28 6,-55 -20,-37 -80,-18 -80,26 0,42 44,59 74,29 z m -2,-306 c -3,-37 -3,-38 32,-38 34,0 36,-2 36,-34 0,-32 -3,-35 -32,-38 -31,-3 -33,-6 -33,-41 0,-35 -2,-37 -32,-37 -32,0 -33,2 -33,40 0,37 -2,40 -29,40 -24,0 -29,5 -33,30 -5,36 -3,40 34,40 26,0 28,3 28,41 0,39 1,40 33,37 31,-3 32,-5 29,-40 z m 145,-304 c 3,-9 0,-20 -8,-25 -16,-11 -334,-8 -344,3 -4,4 -5,14 -2,23 10,23 345,23 354,-1 z m -13,-100 c 21,-8 20,-30 -1,-39 -10,-4 -75,-9 -144,-12 -157,-7 -238,14 -181,46 18,11 300,15 326,5 z"
         id="path1-2"
         style="fill:#000000;fill-opacity:1;stroke:#ffffff;stroke-width:150;stroke-dasharray:none;stroke-opacity:1;paint-order:stroke fill markers" /></g></g></svg>
