<?xml version="1.0" encoding="UTF-8" standalone="no"?>
<!-- Created with Inkscape (http://www.inkscape.org/) -->

<svg
   width="47.474426mm"
   height="49.603542mm"
   viewBox="0 0 47.474426 49.603542"
   version="1.1"
   id="svg1"
   xml:space="preserve"
   inkscape:version="1.4.3 (0d15f75, 2025-12-25)"
   sodipodi:docname="bB.svg"
   inkscape:export-filename="Chess/pieces/wk.svg"
   inkscape:export-xdpi="96"
   inkscape:export-ydpi="96"
   xmlns:inkscape="http://www.inkscape.org/namespaces/inkscape"
   xmlns:sodipodi="http://sodipodi.sourceforge.net/DTD/sodipodi-0.dtd"
   xmlns="http://www.w3.org/2000/svg"
   xmlns:svg="http://www.w3.org/2000/svg"><sodipodi:namedview
     id="namedview1"
     pagecolor="#ffffff"
     bordercolor="#000000"
     borderopacity="0"
     inkscape:showpageshadow="2"
     inkscape:pageopacity="0.0"
     inkscape:pagecheckerboard="0"
     inkscape:deskcolor="#d1d1d1"
     inkscape:document-units="mm"
     inkscape:zoom="2.3464948"
     inkscape:cx="94.396116"
     inkscape:cy="121.03159"
     inkscape:window-width="1470"
     inkscape:window-height="895"
     inkscape:window-x="0"
     inkscape:window-y="33"
     inkscape:window-maximized="0"
     inkscape:current-layer="g17"
     showguides="true"><inkscape:page
       x="0"
       y="0"
       width="47.474426"
       height="49.603542"
       id="page2"
       margin="0"
       bleed="0" /></sodipodi:namedview><defs
     id="defs1" /><g
     inkscape:label="Layer 1"
     inkscape:groupmode="layer"
     id="layer1"
     transform="translate(-63.23542,-14.816663)"><g
       transform="matrix(0.03527778,0,0,-0.03527778,-142.45327,162.81921)"
       fill="#000000"
       stroke="none"
       id="g17"
       style="stroke:#ffffff;stroke-width:0.992126;stroke-dasharray:none;stroke-opacity:1"><g
         transform="translate(-922.49994,449.99991)"
         fill="#000000"
         stroke="none"
         id="g17-1"
         style="stroke:#ffffff;stroke-width:0.992126;stroke-dasharray:none;stroke-opacity:1"><path
           d="m 7385.4333,3607.4835 c -10,-32 -15,-36 -46,-36 -32,0 -34,-2 -34,-34 0,-30 5,-38 40,-57 22,-13 40,-30 40,-38 0,-8 -21,-37 -47,-63 -42,-42 -47,-53 -51,-103 -2,-30 -6,-55 -9,-55 -2,0 -17,9 -32,21 -65,48 -183,55 -261,14 -40,-21 -87,-79 -99,-122 -23,-82 -9,-130 76,-260 63,-95 80,-141 89,-246 10,-110 31,-135 138,-163 123,-33 410,-26 517,11 72,26 86,46 94,134 11,112 34,176 103,280 66,99 77,134 70,212 -15,151 -189,228 -338,151 l -58,-30 -7,55 c -6,48 -12,60 -51,97 -54,52 -56,77 -9,106 29,18 35,28 35,56 0,32 -2,34 -34,34 -29,0 -34,4 -42,33 -8,26 -15,33 -41,35 -28,3 -32,-1 -43,-32 z m -195,-406 c 98,-47 167,-140 180,-240 11,-80 14,-88 40,-94 41,-10 65,9 65,53 0,143 145,301 275,301 96,0 155,-53 155,-139 0,-73 -81,-209 -155,-260 -29,-19 -47,-23 -106,-23 -39,1 -104,6 -145,12 -52,8 -95,8 -147,1 -75,-11 -138,-15 -197,-12 -29,1 -45,12 -95,64 -104,109 -140,220 -96,293 38,62 145,83 226,44 z m 464,-564 c 19,-6 36,-16 38,-23 9,-26 -32,-31 -150,-21 -80,7 -154,7 -234,0 -114,-10 -153,-5 -153,19 0,18 54,31 155,38 120,9 297,2 344,-13 z"
           id="path2"
           style="stroke:#ffffff;stroke-width:150;stroke-dasharray:none;stroke-opacity:1;paint-order:stroke fill markers" /><path
           d="m 7058.4333,3170.4835 c -40,-12 -73,-53 -73,-92 0,-46 38,-116 95,-173 45,-45 56,-51 105,-57 61,-7 128,5 142,25 21,31 -12,152 -57,212 -55,70 -141,105 -212,85 z"
           id="path3"
           style="stroke:#ffffff;stroke-width:0;stroke-dasharray:none;stroke-opacity:1" /><path
           d="m 7708.4333,3171.4835 c -91,-21 -165,-113 -184,-228 -13,-81 3,-94 106,-94 74,0 77,1 123,39 62,52 112,135 112,186 0,29 -7,46 -29,68 -16,16 -38,29 -49,29 -11,0 -26,2 -34,4 -7,2 -28,0 -45,-4 z"
           id="path4"
           style="stroke:#ffffff;stroke-width:0;stroke-dasharray:none;stroke-opacity:1" /></g></g></g></svg>
