<?xml version="1.0" encoding="UTF-8" standalone="no"?>
<!-- Created with Inkscape (http://www.inkscape.org/) -->

<svg
   width="47.474426mm"
   height="49.603542mm"
   viewBox="0 0 47.474426 49.603542"
   version="1.1"
   id="svg1"
   xml:space="preserve"
   inkscape:version="1.4.3 (0d15f75, 2025-12-25)"
   sodipodi:docname="bB.svg"
   inkscape:export-filename="Chess/pieces/bp.svg"
   inkscape:export-xdpi="96"
   inkscape:export-ydpi="96"
   xmlns:inkscape="http://www.inkscape.org/namespaces/inkscape"
   xmlns:sodipodi="http://sodipodi.sourceforge.net/DTD/sodipodi-0.dtd"
   xmlns="http://www.w3.org/2000/svg"
   xmlns:svg="http://www.w3.org/2000/svg"><sodipodi:namedview
     id="namedview1"
     pagecolor="#ffffff"
     bordercolor="#000000"
     borderopacity="0"
     inkscape:showpageshadow="2"
     inkscape:pageopacity="0.0"
     inkscape:pagecheckerboard="0"
     inkscape:deskcolor="#d1d1d1"
     inkscape:document-units="mm"
     inkscape:zoom="2.3464948"
     inkscape:cx="94.396116"
     inkscape:cy="121.03159"
     inkscape:window-width="1470"
     inkscape:window-height="895"
     inkscape:window-x="0"
     inkscape:window-y="33"
     inkscape:window-maximized="0"
     inkscape:current-layer="g17"
     showguides="true"><inkscape:page
       x="0"
       y="0"
       width="47.474426"
       height="49.603542"
       id="page2"
       margin="0"
       bleed="0" /></sodipodi:namedview><defs
     id="defs1" /><g
     inkscape:label="Layer 1"
     inkscape:groupmode="layer"
     id="layer1"
     transform="translate(-63.23542,-14.816663)"><g
       transform="matrix(0.03527778,0,0,-0.03527778,-186.71315,209.58232)"
       fill="#000000"
       stroke="none"
       id="g17"><g
         transform="translate(1388.0926,1414.916)"
         fill="#000000"
         stroke="none"
         id="g17-3" /><g
         transform="translate(1403.0926,1534.916)"
         fill="#000000"
         stroke="none"
         id="g17-1"><ellipse
           style="fill:#ffffff;fill-opacity:1;fill-rule:nonzero;stroke:#ffffff;stroke-width:128.253;stroke-dasharray:none;stroke-opacity:1;paint-order:stroke fill markers"
           id="path14"
           cx="5963.3486"
           cy="-3155.0281"
           transform="matrix(0.99999999,0,0,-0.99999999,2.6576844e-5,-1.0270297e-5)"
           rx="66.701302"
           ry="62.406883" /><path
           d="m 6261.2896,3778.9576 -32,-39 -54,25 c -30,14 -76,26 -101,26 l -46,2 2,-70 c 2,-84 -10,-123 -109,-334 -40,-85 -83,-184 -95,-222 -22,-65 -23,-68 -5,-96 25,-42 62,-68 116,-83 32,-9 51,-10 63,-3 12,8 18,5 26,-11 6,-12 20,-22 32,-24 17,-3 32,12 72,71 27,41 64,86 82,101 36,31 109,70 116,63 10,-10 -38,-100 -95,-180 -33,-45 -66,-95 -75,-112 -12,-24 -37,-120 -37,-140 0,-3 173,-5 384,-5 h 383 l 7,46 c 22,167 -20,436 -91,579 -88,175 -216,288 -347,304 -47,6 -50,8 -63,48 -14,42 -62,93 -88,93 -8,0 -28,-18 -45,-39 z m 208,-196 c 104,-31 244,-197 294,-350 30,-91 48,-205 48,-304 0,-72 -15,-106 -42,-96 -21,8 -28,36 -28,121 0,94 -24,231 -54,304 -54,132 -164,251 -266,287 -48,17 -63,36 -37,46 20,9 31,8 85,-8 z m -291,-82 c 3,-7 -13,-31 -34,-53 -29,-32 -46,-42 -73,-43 -51,-3 -53,32 -6,79 30,30 41,35 72,32 21,-2 39,-8 41,-15 z m -257,-361 c 0,-25 -21,-50 -45,-54 -16,-2 -19,2 -17,22 4,41 62,71 62,32 z"
           id="path6"
           style="stroke:#ffffff;stroke-width:150;stroke-dasharray:none;stroke-opacity:1;paint-order:stroke fill markers" /></g></g></g></svg>
