<?xml version="1.0" encoding="UTF-8" standalone="no"?>
<!-- Created with Inkscape (http://www.inkscape.org/) -->

<svg
   width="47.474426mm"
   height="49.603542mm"
   viewBox="0 0 47.474426 49.603542"
   version="1.1"
   id="svg1"
   xml:space="preserve"
   inkscape:version="1.4.3 (0d15f75, 2025-12-25)"
   sodipodi:docname="bB.svg"
   inkscape:export-filename="Chess/pieces/wp.svg"
   inkscape:export-xdpi="96"
   inkscape:export-ydpi="96"
   xmlns:inkscape="http://www.inkscape.org/namespaces/inkscape"
   xmlns:sodipodi="http://sodipodi.sourceforge.net/DTD/sodipodi-0.dtd"
   xmlns="http://www.w3.org/2000/svg"
   xmlns:svg="http://www.w3.org/2000/svg"><sodipodi:namedview
     id="namedview1"
     pagecolor="#ffffff"
     bordercolor="#000000"
     borderopacity="0"
     inkscape:showpageshadow="2"
     inkscape:pageopacity="0.0"
     inkscape:pagecheckerboard="0"
     inkscape:deskcolor="#d1d1d1"
     inkscape:document-units="mm"
     inkscape:zoom="2.3464948"
     inkscape:cx="94.396116"
     inkscape:cy="121.03159"
     inkscape:window-width="1470"
     inkscape:window-height="895"
     inkscape:window-x="0"
     inkscape:window-y="33"
     inkscape:window-maximized="0"
     inkscape:current-layer="g17"><inkscape:page
       x="0"
       y="0"
       width="47.474426"
       height="49.603542"
       id="page2"
       margin="0"
       bleed="0" /></sodipodi:namedview><defs
     id="defs1" /><g
     inkscape:label="Layer 1"
     inkscape:groupmode="layer"
     id="layer1"
     transform="translate(-63.23542,-14.816663)"><g
       transform="matrix(0.03527778,0,0,-0.03527778,-186.71315,209.58232)"
       fill="#000000"
       stroke="none"
       id="g17"><path
         d="m 6579.0277,3888.8663 c -77,-23 -116,-102.9999 -91,-185.9999 13,-43 13,-49 -1,-57 -39,-22 -84,-71 -95,-104 -24,-72 7,-175 63,-207 l 31,-19 -34,-17 c -51,-27 -126,-97 -154,-144 -33,-56 -55,-155 -55,-248 v -78 h 391 392 l -6,103 c -3,56 -13,125 -22,153 -24,71 -79,140 -150,188 l -61,41 42,40 c 47,45 60,87 49,160 -6,45 -51,104 -98,130 -17,9 -17,13 -2,57 42,120.9999 -69,225.9999 -199,187.9999 z m 85,-60 c 18,0 49,-39.9999 49,-63.9999 0,-13 -9,-43 -19,-66 -11,-24 -17,-49 -14,-56 2,-7 22,-24 44,-39 52,-34 79,-79 79,-133 0,-45 -17,-68 -88,-125 -29,-23 -17,-47 46,-90 129,-89 181,-168 190,-287 l 5,-70 h -323 -323 l 5,70 c 9,121 54,187 198,293 58,43 62,67 15,104 -92,71 -86,168 14,239 44,32 51,59 26,104 -37,65 8,140.9999 73,123.9999 8,-2 18,-4 23,-4 z"
         id="path17-0"
         style="stroke:#ffffff;stroke-width:150;stroke-dasharray:none;stroke-opacity:1"
         transform="translate(1125.5927,1482.416)" /><g
         transform="translate(1125.5927,1482.416)"
         fill="#000000"
         stroke="none"
         id="g17-4"><path
           d="m 6579.0277,3888.8663 c -77,-23 -116,-103 -91,-186 13,-43 13,-49 -1,-57 -39,-22 -84,-71 -95,-104 -24,-72 7,-175 63,-207 l 31,-19 -34,-17 c -51,-27 -126,-97 -154,-144 -33,-56 -55,-155 -55,-248 v -78 h 391 392 l -6,103 c -3,56 -13,125 -22,153 -24,71 -79,140 -150,188 l -61,41 42,40 c 47,45 60,87 49,160 -6,45 -51,104 -98,130 -17,9 -17,13 -2,57 42,121 -69,226 -199,188 z m 85,-60 c 18,0 49,-40 49,-64 0,-13 -9,-43 -19,-66 -11,-24 -17,-49 -14,-56 2,-7 22,-24 44,-39 52,-34 79,-79 79,-133 0,-45 -17,-68 -88,-125 -29,-23 -17,-47 46,-90 129,-89 181,-168 190,-287 l 5,-70 h -323 -323 l 5,70 c 9,121 54,187 198,293 58,43 62,67 15,104 -92,71 -86,168 14,239 44,32 51,59 26,104 -37,65 8,141 73,124 8,-2 18,-4 23,-4 z"
           id="path17"
           style="fill:#ffffff;fill-opacity:1;stroke-width:0.9975;stroke-dasharray:none" /><path
           style="fill:#ffffff;fill-opacity:1;fill-rule:nonzero;stroke-width:0.401692;paint-order:stroke fill markers"
           d="m 47.029778,150.33328 c 0.08591,-0.82849 0.356305,-4.0335 0.600881,-7.12225 0.758163,-9.57485 3.073737,-16.41332 7.55913,-22.324 2.954014,-3.89269 9.93623,-10.42997 16.524797,-15.47178 3.196598,-2.44616 6.39947,-5.21682 7.117495,-6.157036 2.543955,-3.331173 1.561297,-6.247397 -3.452123,-10.244812 -2.963285,-2.362753 -5.259076,-5.244782 -6.762775,-8.489667 -0.93899,-2.026284 -1.108923,-2.919808 -1.104772,-5.808999 0.0086,-6.018657 2.515227,-10.305272 9.295183,-15.896113 5.158801,-4.254016 6.331939,-5.91199 6.321067,-8.933452 -0.0066,-1.82819 -0.34633,-3.014323 -1.700497,-5.936735 -1.475589,-3.184452 -1.691773,-4.007406 -1.688352,-6.427074 0.0048,-3.367026 1.163661,-6.171237 3.340147,-8.082217 2.237172,-1.964263 4.076906,-2.364684 8.022764,-1.746166 1.81221,0.284066 3.692848,0.765552 4.179193,1.06997 2.352217,1.472321 4.940274,5.546796 4.940274,7.777661 0,1.180873 -1.246747,5.272457 -3.370056,11.059908 -1.183103,3.224756 -1.30374,4.879764 -0.445054,6.105711 0.331926,0.473894 2.676928,2.411231 5.21111,4.305193 6.4348,4.80915 8.82856,7.981849 10.09562,13.38079 0.83327,3.550577 0.57465,7.425271 -0.66799,10.007718 -0.93186,1.936606 -3.95863,5.171099 -9.5317,10.185876 -2.536291,2.282206 -2.901497,2.785321 -2.900196,3.99533 0.0022,2.084329 1.687366,4.146359 5.999696,7.341654 8.50386,6.30106 9.96827,7.47374 13.36475,10.70221 8.97738,8.53332 12.93973,16.84131 13.9578,29.2658 0.23132,2.82301 0.50263,5.99137 0.6029,7.04079 l 0.18233,1.90804 H 89.797489 46.873581 Z"
           id="path9"
           transform="matrix(7.4999995,0,0,-7.4999995,5959.5632,4038.4999)" /><path
           style="fill:#ffffff;fill-opacity:1;fill-rule:nonzero;stroke-width:0.401692;paint-order:stroke fill markers"
           d="m 47.376451,148.32482 c 0.917294,-11.82522 2.175961,-17.29309 5.281164,-22.94232 3.078034,-5.59979 8.128086,-10.84107 18.642738,-19.34865 6.830141,-5.52638 8.315453,-7.005034 8.8265,-8.786949 0.72583,-2.530825 0.159714,-3.586387 -4.288688,-7.996533 -6.631448,-6.574423 -8.452175,-10.10518 -8.037618,-15.586571 0.400061,-5.289723 1.684962,-7.369308 8.906018,-14.414208 5.838544,-5.696113 6.191036,-6.127625 6.450353,-7.89637 0.341225,-2.327422 0.05369,-3.684706 -1.662451,-7.847308 -2.136995,-5.183426 -1.817889,-9.748781 0.903652,-12.92829 1.724094,-2.014216 3.575057,-2.862 6.235704,-2.856096 4.996186,0.01109 8.532595,1.996749 10.390172,5.833992 1.184495,2.44684 0.998785,4.069831 -1.211961,10.591916 -2.02397,5.971056 -2.429884,8.598458 -1.506345,9.750326 0.276163,0.344441 2.309729,2.045562 4.519041,3.780269 5.23333,4.109116 7.36923,6.326419 8.89727,9.236371 1.68744,3.213503 2.2845,6.042143 2.06731,9.794068 -0.24743,4.274229 -1.26342,5.864966 -7.82452,12.250903 -4.756522,4.629538 -5.349372,5.355167 -5.349372,6.547445 0,2.795565 1.332027,4.22922 9.984182,10.745935 14.48839,10.91251 20.55107,19.45896 22.50755,31.7285 0.47351,2.96945 1.2495,10.8865 1.25007,12.75372 l 3.4e-4,1.10466 H 89.730679 47.103804 Z"
           id="path10"
           transform="matrix(7.4999995,0,0,-7.4999995,5959.5632,4038.4999)" /><ellipse
           style="fill:#ffffff;fill-opacity:1;fill-rule:nonzero;stroke-width:7.5;paint-order:stroke fill markers"
           id="path11"
           cx="6630.0781"
           cy="-3683.0696"
           transform="scale(1,-1)"
           rx="128.72345"
           ry="172.91209" /><ellipse
           style="fill:#ffffff;fill-opacity:1;fill-rule:nonzero;stroke-width:7.5;paint-order:stroke fill markers"
           id="path12"
           cx="6633.9204"
           cy="-3480.3779"
           transform="scale(1,-1)"
           rx="238.23445"
           ry="154.66026" /><ellipse
           style="fill:#ffffff;fill-opacity:1;fill-rule:nonzero;stroke-width:7.5;paint-order:stroke fill markers"
           id="path12-8"
           cx="6494.0981"
           cy="-2988.5522"
           transform="scale(1,-1)"
           rx="238.23445"
           ry="154.66026" /><ellipse
           style="fill:#ffffff;fill-opacity:1;fill-rule:nonzero;stroke-width:7.5;paint-order:stroke fill markers"
           id="path12-8-7"
           cx="6571.5449"
           cy="-3115.481"
           transform="scale(1,-1)"
           rx="238.23445"
           ry="154.66026" /><ellipse
           style="fill:#ffffff;fill-opacity:1;fill-rule:nonzero;stroke-width:7.5;paint-order:stroke fill markers"
           id="path12-8-7-1"
           cx="6729.8564"
           cy="-3011.4351"
           transform="scale(1,-1)"
           rx="238.23445"
           ry="154.66026" /><ellipse
           style="fill:#ffffff;fill-opacity:1;fill-rule:nonzero;stroke-width:4.92637;paint-order:stroke fill markers"
           id="path12-8-7-1-1"
           cx="6880.9307"
           cy="-2990.97"
           transform="scale(1,-1)"
           rx="102.78664"
           ry="154.66026" /><ellipse
           style="fill:#ffffff;fill-opacity:1;fill-rule:nonzero;stroke-width:4.92637;paint-order:stroke fill markers"
           id="path12-8-7-1-1-8"
           cx="6789.8501"
           cy="-3028.8396"
           transform="scale(1,-1)"
           rx="102.78664"
           ry="154.66026" /><ellipse
           style="fill:#ffffff;fill-opacity:1;fill-rule:nonzero;stroke-width:4.92637;paint-order:stroke fill markers"
           id="path12-8-7-1-1-3"
           cx="6613.0957"
           cy="-3251.7041"
           transform="scale(1,-1)"
           rx="102.78664"
           ry="154.66026" /><ellipse
           style="fill:#ffffff;fill-opacity:1;fill-rule:nonzero;stroke-width:4.92637;paint-order:stroke fill markers"
           id="path12-8-7-1-1-3-5"
           cx="6721.2822"
           cy="-3167.1985"
           transform="scale(1,-1)"
           rx="102.78664"
           ry="154.66026" /><ellipse
           style="fill:#ffffff;fill-opacity:1;fill-rule:nonzero;stroke-width:4.92637;paint-order:stroke fill markers"
           id="path12-8-7-1-1-3-5-5"
           cx="6818.2275"
           cy="-3088.9114"
           transform="scale(1,-1)"
           rx="102.78664"
           ry="154.66026" /></g><path
         d="m 7705.1192,5370.7849 c -77,-23 -116,-102.9999 -91,-185.9999 13,-43 13,-49 -1,-57 -39,-22 -84,-71 -95,-104 -24,-72 7,-175 63,-207 l 31,-19 -34,-17 c -51,-27 -126,-97 -154,-144 -33,-56 -55,-155 -55,-248 v -78 h 391 392 l -6,103 c -3,56 -13,125 -22,153 -24,71 -79,140 -150,188 l -61,41 42,40 c 47,45 60,87 49,160 -6,45 -51,104 -98,130 -17,9 -17,13 -2,57 42,120.9999 -69,225.9999 -199,187.9999 z m 85,-60 c 18,0 49,-39.9999 49,-63.9999 0,-13 -9,-43 -19,-66 -11,-24 -17,-49 -14,-56 2,-7 22,-24 44,-39 52,-34 79,-79 79,-133 0,-45 -17,-68 -88,-125 -29,-23 -17,-47 46,-90 129,-89 181,-168 190,-287 l 5,-70 h -323 -323 l 5,70 c 9,121 54,187 198,293 58,43 62,67 15,104 -92,71 -86,168 14,239 44,32 51,59 26,104 -37,65 8,140.9999 73,123.9999 8,-2 18,-4 23,-4 z"
         id="path17-0-8"
         style="stroke:#79ffff;stroke-width:0.9975;stroke-dasharray:none;stroke-opacity:1" /><g
         transform="translate(1388.0926,1414.916)"
         fill="#000000"
         stroke="none"
         id="g17-3"><path
           d="m 6291.5278,3944.0943 c -68,-35 -91,-101 -64,-178 9,-24 15,-45 14,-46 -2,-1 -20,-11 -40,-24 -67,-40 -97,-146 -64,-224 7,-18 28,-45 46,-61 26,-22 30,-29 19,-36 -50,-28 -122,-92 -148,-130 -47,-70 -63,-125 -68,-242 l -6,-108 h 393 393 l -6,108 c -4,73 -12,125 -27,164 -25,67 -93,147 -156,184 -24,14 -44,28 -44,31 0,3 12,14 26,26 31,24 63,90 64,131 0,53 -23,106 -60,140 -21,18 -43,35 -50,38 -11,3 -11,11 -2,38 7,18 12,52 12,76 0,104 -129,168 -232,113 z"
           id="path7" /></g></g></g></svg>
