<?xml version="1.0" encoding="UTF-8" standalone="no"?>
<!-- Created with Inkscape (http://www.inkscape.org/) -->

<svg
   width="49.6931mm"
   height="46.469307mm"
   viewBox="0 0 49.6931 46.469307"
   version="1.1"
   id="svg1"
   xml:space="preserve"
   inkscape:version="1.4.3 (0d15f75, 2025-12-25)"
   sodipodi:docname="bB.svg"
   inkscape:export-filename="Chess/pieces/w=bq.svg"
   inkscape:export-xdpi="96"
   inkscape:export-ydpi="96"
   xmlns:inkscape="http://www.inkscape.org/namespaces/inkscape"
   xmlns:sodipodi="http://sodipodi.sourceforge.net/DTD/sodipodi-0.dtd"
   xmlns="http://www.w3.org/2000/svg"
   xmlns:svg="http://www.w3.org/2000/svg"><sodipodi:namedview
     id="namedview1"
     pagecolor="#ffffff"
     bordercolor="#000000"
     borderopacity="0"
     inkscape:showpageshadow="2"
     inkscape:pageopacity="0.0"
     inkscape:pagecheckerboard="0"
     inkscape:deskcolor="#d1d1d1"
     inkscape:document-units="mm"
     inkscape:zoom="2.3464948"
     inkscape:cx="94.396116"
     inkscape:cy="121.03159"
     inkscape:window-width="1470"
     inkscape:window-height="895"
     inkscape:window-x="0"
     inkscape:window-y="33"
     inkscape:window-maximized="0"
     inkscape:current-layer="g17"
     showguides="true"><inkscape:page
       x="0"
       y="0"
       width="49.6931"
       height="46.469311"
       id="page2"
       margin="0"
       bleed="0" /></sodipodi:namedview><defs
     id="defs1" /><g
     inkscape:label="Layer 1"
     inkscape:groupmode="layer"
     id="layer1"
     transform="translate(-62.126082,-16.383782)"><g
       transform="matrix(0.03527778,0,0,-0.03527778,-142.45327,162.81921)"
       fill="#000000"
       stroke="none"
       id="g17"
       style="stroke:#ffffff;stroke-width:0.992126;stroke-dasharray:none;stroke-opacity:1"><g
         transform="translate(-922.49994,449.99991)"
         fill="#000000"
         stroke="none"
         id="g17-1"
         style="stroke:#ffffff;stroke-width:0.992126;stroke-dasharray:none;stroke-opacity:1"><ellipse
           style="fill:#ffffff;fill-opacity:1;fill-rule:nonzero;stroke:#c4ffff;stroke-width:0;stroke-dasharray:none;stroke-opacity:1;paint-order:stroke fill markers"
           id="path21"
           cx="7431.0186"
           cy="-3540.7339"
           transform="scale(1,-1)"
           rx="68.653511"
           ry="73.471291" /><ellipse
           style="fill:#ffffff;fill-opacity:1;fill-rule:nonzero;stroke:#c4ffff;stroke-width:0;stroke-dasharray:none;stroke-opacity:1;paint-order:stroke fill markers"
           id="path21-0"
           cx="7719.0576"
           cy="-3480.6321"
           transform="scale(1,-1)"
           rx="68.653511"
           ry="73.471291" /><ellipse
           style="fill:#ffffff;fill-opacity:1;fill-rule:nonzero;stroke:#c4ffff;stroke-width:0;stroke-dasharray:none;stroke-opacity:1;paint-order:stroke fill markers"
           id="path21-0-6"
           cx="7963.2778"
           cy="-3360.7849"
           transform="scale(1,-1)"
           rx="68.653511"
           ry="73.471291" /><ellipse
           style="fill:#ffffff;fill-opacity:1;fill-rule:nonzero;stroke:#c4ffff;stroke-width:0;stroke-dasharray:none;stroke-opacity:1;paint-order:stroke fill markers"
           id="path21-0-8"
           cx="7136.3462"
           cy="-3481.5537"
           transform="scale(1,-1)"
           rx="68.653511"
           ry="73.471291" /><ellipse
           style="fill:#ffffff;fill-opacity:1;fill-rule:nonzero;stroke:#c4ffff;stroke-width:0;stroke-dasharray:none;stroke-opacity:1;paint-order:stroke fill markers"
           id="path21-0-8-1"
           cx="6894.6367"
           cy="-3364.7827"
           transform="scale(1,-1)"
           rx="68.653511"
           ry="73.471291" /><path
           d="m 7363.5899,3606.4429 c -35,-27 -41,-68 -20,-135 23,-73 22,-173 -1,-292 l -17,-90 -23,50 c -48,106 -73,198 -71,260 1,33 2,72 2,87 2,65 -72,111 -136,84 -42,-17 -57,-38 -63,-84 -4,-33 -1,-44 26,-74 45,-51 51,-77 51,-206 l -1,-117 -39,43 c -62,69 -84,123 -76,190 5,47 3,63 -14,90 -34,55 -87,66 -140,30 -62,-42 -59,-125 5,-173 28,-22 33,-33 39,-85 4,-32 20,-109 35,-169 25,-97 35,-118 79,-173 27,-35 57,-78 66,-96 16,-31 16,-35 -9,-103 -43,-120 -35,-134 90,-166 96,-24 454,-24 564,0 118,26 133,55 85,169 -15,36 -23,70 -20,84 3,12 34,57 67,100 59,74 62,81 90,196 15,66 31,143 34,172 6,43 12,54 39,71 69,45 65,147 -7,181 -44,21 -80,13 -119,-27 -29,-29 -30,-32 -23,-93 6,-56 3,-70 -18,-112 -14,-27 -41,-67 -61,-89 l -35,-40 -3,60 c -7,155 6,218 50,259 75,67 -7,198 -103,166 -60,-20 -70,-41 -67,-141 2,-77 -1,-101 -27,-179 -17,-50 -39,-107 -49,-127 l -19,-36 -16,90 c -21,113 -22,227 -2,283 22,62 19,103 -10,134 -29,32 -96,36 -133,8 z m 96,-44 c 17,-17 15,-53 -3,-68 -38,-31 -96,27 -65,65 15,18 51,20 68,3 z m -286,-62 c 23,-35 0,-68 -43,-64 -29,3 -34,7 -37,33 -3,19 2,33 14,42 19,14 54,8 66,-11 z m 572,11 c 12,-9 17,-23 14,-42 -2,-24 -8,-31 -31,-33 -54,-6 -77,43 -35,72 27,19 30,19 52,3 z m -816,-119 c 17,-17 15,-53 -3,-68 -20,-17 -62,-5 -70,20 -14,44 41,80 73,48 z m 1056,-4 c 19,-18 20,-28 6,-55 -20,-37 -80,-18 -80,26 0,42 44,59 74,29 z m -279,-485 c 28,-10 41,-21 43,-35 l 3,-22 -325,1 c -310,1 -326,2 -326,19 0,42 109,58 365,54 135,-3 213,-8 240,-17 z m -41,-218 c 21,-5 46,-17 55,-25 13,-14 13,-18 1,-30 -13,-12 -40,-13 -160,-7 -80,5 -205,5 -279,0 -131,-9 -161,-4 -161,22 0,16 57,38 121,48 76,12 367,6 423,-8 z"
           id="path5"
           style="stroke:#ffffff;stroke-width:150;stroke-dasharray:none;stroke-opacity:1;paint-order:stroke fill markers"
           transform="translate(3.0103529e-5,3.2602382e-5)" /></g></g></g></svg>
