<?xml version="1.0" encoding="UTF-8" standalone="no"?>
<!-- Created with Inkscape (http://www.inkscape.org/) -->

<svg
   width="47.474426mm"
   height="49.603542mm"
   viewBox="0 0 47.474426 49.603542"
   version="1.1"
   id="svg1"
   xml:space="preserve"
   inkscape:version="1.4.3 (0d15f75, 2025-12-25)"
   sodipodi:docname="bB.svg"
   inkscape:export-filename="Chess/pieces/wr.svg"
   inkscape:export-xdpi="96"
   inkscape:export-ydpi="96"
   xmlns:inkscape="http://www.inkscape.org/namespaces/inkscape"
   xmlns:sodipodi="http://sodipodi.sourceforge.net/DTD/sodipodi-0.dtd"
   xmlns="http://www.w3.org/2000/svg"
   xmlns:svg="http://www.w3.org/2000/svg"><sodipodi:namedview
     id="namedview1"
     pagecolor="#ffffff"
     bordercolor="#000000"
     borderopacity="0"
     inkscape:showpageshadow="2"
     inkscape:pageopacity="0.0"
     inkscape:pagecheckerboard="0"
     inkscape:deskcolor="#d1d1d1"
     inkscape:document-units="mm"
     inkscape:zoom="2.3464948"
     inkscape:cx="94.396116"
     inkscape:cy="121.03159"
     inkscape:window-width="1470"
     inkscape:window-height="895"
     inkscape:window-x="0"
     inkscape:window-y="33"
     inkscape:window-maximized="0"
     inkscape:current-layer="g17"
     showguides="true"><inkscape:page
       x="0"
       y="0"
       width="47.474426"
       height="49.603542"
       id="page2"
       margin="0"
       bleed="0" /></sodipodi:namedview><defs
     id="defs1" /><g
     inkscape:label="Layer 1"
     inkscape:groupmode="layer"
     id="layer1"
     transform="translate(-63.23542,-14.816663)"><g
       transform="matrix(0.03527778,0,0,-0.03527778,-142.24224,162.57764)"
       fill="#000000"
       stroke="none"
       id="g17"><path
         d="m 6109.4064,3987.5231 c -24,-25 -27,-35 -27,-103 v -75 l 75,-74 75,-74 v -176 -175 l -95,-95 -95,-95 v -66 c 0,-106 -33,-99 457,-99 487,0 453,-8 453,101 v 64 l -90,90 -90,90 v 180 181 l 70,69 70,69 v 86 c 0,77 -2,89 -23,108 -19,18 -35,22 -93,22 -75,0 -94,-9 -94,-47 0,-20 -5,-23 -35,-23 -30,0 -35,3 -35,23 0,41 -17,47 -130,47 -113,0 -130,-6 -130,-47 0,-20 -5,-23 -35,-23 -27,0 -35,4 -35,18 0,36 -32,52 -101,52 -58,0 -68,-3 -92,-28 z m 593,-347 v -35 l -202,2 -203,3 -3,33 -3,32 h 205 206 z m 0,-325 v -30 h -205 -205 v 30 30 h 205 205 z"
         id="path8"
         style="stroke:#ffffff;stroke-width:150;stroke-dasharray:none;stroke-opacity:1;paint-order:stroke fill markers" /></g></g></svg>
