<?xml version="1.0" encoding="UTF-8" standalone="no"?>
<!-- Created with Inkscape (http://www.inkscape.org/) -->

<svg
   width="47.474426mm"
   height="49.603542mm"
   viewBox="0 0 47.474426 49.603542"
   version="1.1"
   id="svg1"
   xml:space="preserve"
   inkscape:version="1.4.3 (0d15f75, 2025-12-25)"
   sodipodi:docname="bB.svg"
   inkscape:export-filename="Chess/pieces/bn.svg"
   inkscape:export-xdpi="96"
   inkscape:export-ydpi="96"
   xmlns:inkscape="http://www.inkscape.org/namespaces/inkscape"
   xmlns:sodipodi="http://sodipodi.sourceforge.net/DTD/sodipodi-0.dtd"
   xmlns="http://www.w3.org/2000/svg"
   xmlns:svg="http://www.w3.org/2000/svg"><sodipodi:namedview
     id="namedview1"
     pagecolor="#ffffff"
     bordercolor="#000000"
     borderopacity="0"
     inkscape:showpageshadow="2"
     inkscape:pageopacity="0.0"
     inkscape:pagecheckerboard="0"
     inkscape:deskcolor="#d1d1d1"
     inkscape:document-units="mm"
     inkscape:zoom="2.3464948"
     inkscape:cx="94.396116"
     inkscape:cy="121.03159"
     inkscape:window-width="1470"
     inkscape:window-height="895"
     inkscape:window-x="0"
     inkscape:window-y="33"
     inkscape:window-maximized="0"
     inkscape:current-layer="g17"
     showguides="true"><inkscape:page
       x="0"
       y="0"
       width="47.474426"
       height="49.603542"
       id="page2"
       margin="0"
       bleed="0" /></sodipodi:namedview><defs
     id="defs1" /><g
     inkscape:label="Layer 1"
     inkscape:groupmode="layer"
     id="layer1"
     transform="translate(-63.23542,-14.816663)"><g
       transform="matrix(0.03527778,0,0,-0.03527778,-186.71315,209.58232)"
       fill="#000000"
       stroke="none"
       id="g17"><path
         d="m 7670.8078,5322.8781 c -14,-16 -27,-34 -29,-40 -2,-7 -23,-2 -56,15 -28,14 -75,29 -103,32 l -51,6 7,-61 c 8,-70 -6,-130 -59,-244 -94,-205 -135,-298 -150,-345 l -18,-53 29,-40 c 32,-45 84,-74 120,-67 17,3 32,-3 49,-20 39,-39 71,-28 116,37 21,30 55,72 76,93 38,40 119,93 128,84 12,-12 -14,-66 -81,-167 -73,-108 -115,-199 -115,-245 v -25 h 379 379 l 7,73 c 9,94 -9,289 -35,392 -38,147 -120,289 -217,375 -64,56 -114,81 -179,87 -50,5 -54,8 -65,40 -14,44 -66,103 -89,103 -10,0 -29,-13 -43,-30 z m -135,-66 32,-16 -25,-14 c -37,-21 -49,-17 -49,16 0,35 1,35 42,14 z m 198,-32 c 30,-96 25,-92 103,-92 53,0 78,-5 103,-21 55,-34 146,-142 191,-225 65,-122 84,-203 90,-381 l 6,-152 -302,-3 c -240,-2 -301,0 -301,10 0,19 37,88 89,167 70,105 91,159 91,235 0,25 11,82 24,126 26,87 25,109 -5,94 -25,-14 -65,-85 -79,-140 -10,-40 -17,-49 -57,-70 -61,-32 -138,-104 -188,-174 -43,-59 -62,-66 -57,-21 3,26 1,27 -25,21 -76,-19 -88,-18 -116,10 -22,21 -27,34 -22,53 3,15 48,114 99,221 51,107 99,209 106,227 10,26 23,36 67,53 88,33 133,59 145,85 14,31 23,25 38,-23 z"
         id="path14-6"
         inkscape:transform-center-x="0.38049162"
         style="stroke:#ffffff;stroke-width:150;stroke-dasharray:none;stroke-opacity:1" /><g
         transform="translate(1404.7537,1421.0076)"
         fill="#000000"
         stroke="none"
         id="g17-3" /><ellipse
         style="fill:#ffffff;fill-opacity:1;fill-rule:nonzero;stroke-width:0.369419;paint-order:stroke fill markers"
         id="path14"
         cx="7403.8721"
         cy="-4669.5293"
         transform="matrix(0.99999999,0,0,-0.99999999,-1.0039367e-5,-1.3582675e-5)"
         rx="150.50502"
         ry="113.61652" /><ellipse
         style="fill:#ffffff;fill-opacity:1;fill-rule:nonzero;stroke-width:0.234213;paint-order:stroke fill markers"
         id="path14-9"
         cx="7443.5659"
         cy="-4637.8647"
         transform="scale(1,-1)"
         rx="60.497112"
         ry="113.61652" /><ellipse
         style="fill:#ffffff;fill-opacity:1;fill-rule:nonzero;stroke-width:0.541497;paint-order:stroke fill markers"
         id="path14-9-4"
         cx="7513.1528"
         cy="-4832.6357"
         transform="scale(1,-1)"
         rx="199.19783"
         ry="184.44241" /><ellipse
         style="fill:#ffffff;fill-opacity:1;fill-rule:nonzero;stroke-width:0.72184;paint-order:stroke fill markers"
         id="path14-9-4-3"
         cx="7706.1963"
         cy="-4996.7563"
         transform="scale(1,-1)"
         rx="281.82803"
         ry="231.65968" /><ellipse
         style="fill:#ffffff;fill-opacity:1;fill-rule:nonzero;stroke-width:0.204551;paint-order:stroke fill markers"
         id="path14-9-4-3-89"
         cx="7523.8154"
         cy="-5202.311"
         transform="scale(1,-1)"
         rx="63.448193"
         ry="82.630196" /><ellipse
         style="fill:#ffffff;fill-opacity:1;fill-rule:nonzero;stroke-width:0.204551;paint-order:stroke fill markers"
         id="path14-9-4-3-89-6"
         cx="7726.104"
         cy="-5190.7856"
         transform="scale(1,-1)"
         rx="63.448193"
         ry="82.630196" /><ellipse
         style="fill:#ffffff;fill-opacity:1;fill-rule:nonzero;stroke-width:0.352326;paint-order:stroke fill markers"
         id="path14-9-4-3-8"
         cx="7747.2744"
         cy="-4400.1416"
         transform="scale(1,-1)"
         rx="138.7007"
         ry="112.14098" /><ellipse
         style="fill:#ffffff;fill-opacity:1;fill-rule:nonzero;stroke-width:0.435897;paint-order:stroke fill markers"
         id="path14-9-4-3-8-3"
         cx="7876.1201"
         cy="-4625.7173"
         transform="scale(1,-1)"
         rx="119.51869"
         ry="199.19781" /><ellipse
         style="fill:#ffffff;fill-opacity:1;fill-rule:nonzero;stroke-width:0.573067;paint-order:stroke fill markers"
         id="path14-9-4-3-8-3-0"
         cx="7989.9648"
         cy="-4502.001"
         transform="scale(1,-1)"
         rx="206.57552"
         ry="199.19781" /><ellipse
         style="fill:#ffffff;fill-opacity:1;fill-rule:nonzero;stroke-width:0.573067;paint-order:stroke fill markers"
         id="path14-9-4-3-8-3-0-6"
         cx="7910.7754"
         cy="-4919.5864"
         transform="scale(1,-1)"
         rx="206.57552"
         ry="199.19781" /><ellipse
         style="fill:#ffffff;fill-opacity:1;fill-rule:nonzero;stroke-width:0.573067;paint-order:stroke fill markers"
         id="path14-9-4-3-8-3-0-6-5"
         cx="8008.9932"
         cy="-4738.3159"
         transform="scale(1,-1)"
         rx="206.57552"
         ry="199.19781" /><ellipse
         style="fill:#ffffff;fill-opacity:1;fill-rule:nonzero;stroke-width:0.573067;paint-order:stroke fill markers"
         id="path14-9-4-3-8-3-0-6-5-5"
         cx="8049.8506"
         cy="-4547.8491"
         transform="scale(1,-1)"
         rx="206.57552"
         ry="199.19781" /><ellipse
         style="fill:#ffffff;fill-opacity:1;fill-rule:nonzero;stroke-width:0.389075;paint-order:stroke fill markers"
         id="path14-9-4-3-8-3-0-6-5-5-9"
         cx="8086.2417"
         cy="-4386.7866"
         transform="scale(1,-1)"
         rx="194.77119"
         ry="97.38559" /><ellipse
         style="fill:#ffffff;fill-opacity:1;fill-rule:nonzero;stroke-width:0.343739;paint-order:stroke fill markers"
         id="path14-9-4-3-8-3-1"
         cx="7804.2998"
         cy="-4522.4219"
         transform="scale(1,-1)"
         rx="125.42085"
         ry="118.04314" /><path
         d="m 7670.2409,5323.3884 c -14,-16 -27,-34 -29,-40 -2,-7 -23,-2 -56,15 -28,14 -75,29 -103,32 l -51,6 7,-61 c 8,-70 -6,-130 -59,-244 -94,-205 -135,-298 -150,-345 l -18,-53 29,-40 c 32,-45 84,-74 120,-67 17,3 32,-3 49,-20 39,-39 71,-28 116,37 21,30 55,72 76,93 38,40 119,93 128,84 12,-12 -14,-66 -81,-167 -73,-108 -115,-199 -115,-245 v -25 h 379 379 l 7,73 c 9,94 -9,289 -35,392 -38,147 -120,289 -217,375 -64,56 -114,81 -179,87 -50,5 -54,8 -65,40 -14,44 -66,103 -89,103 -10,0 -29,-13 -43,-30 z m -135,-66 32,-16 -25,-14 c -37,-21 -49,-17 -49,16 0,35 1,35 42,14 z m 198,-32 c 30,-96 25,-92 103,-92 53,0 78,-5 103,-21 55,-34 146,-142 191,-225 65,-122 84,-203 90,-381 l 6,-152 -302,-3 c -240,-2 -301,0 -301,10 0,19 37,88 89,167 70,105 91,159 91,235 0,25 11,82 24,126 26,87 25,109 -5,94 -25,-14 -65,-85 -79,-140 -10,-40 -17,-49 -57,-70 -61,-32 -138,-104 -188,-174 -43,-59 -62,-66 -57,-21 3,26 1,27 -25,21 -76,-19 -88,-18 -116,10 -22,21 -27,34 -22,53 3,15 48,114 99,221 51,107 99,209 106,227 10,26 23,36 67,53 88,33 133,59 145,85 14,31 23,25 38,-23 z"
         id="path14-6-4"
         inkscape:transform-center-x="0.38049162" /><path
         d="m 7318.8078,4696.8781 c -22,-23 -15,-58 12,-62 30,-4 53,39 33,63 -16,19 -25,19 -45,-1 z"
         id="path16"
         transform="translate(-1.0039367e-5,-1.3582675e-5)" /><path
         d="m 7496.8078,5032.8781 c -33,-20 -50,-57 -39,-85 8,-22 33,-19 83,10 41,25 63,61 48,84 -10,17 -57,13 -92,-9 z"
         id="path15"
         transform="translate(-1.0039367e-5,-1.3582675e-5)" /></g></g></svg>
