<?xml version="1.0" encoding="UTF-8" standalone="no"?>
<!-- Created with Inkscape (http://www.inkscape.org/) -->

<svg
   width="47.474426mm"
   height="49.603542mm"
   viewBox="0 0 47.474426 49.603542"
   version="1.1"
   id="svg1"
   xml:space="preserve"
   inkscape:version="1.4.3 (0d15f75, 2025-12-25)"
   sodipodi:docname="bB.svg"
   inkscape:export-filename="Chess/pieces/wb.svg"
   inkscape:export-xdpi="96"
   inkscape:export-ydpi="96"
   xmlns:inkscape="http://www.inkscape.org/namespaces/inkscape"
   xmlns:sodipodi="http://sodipodi.sourceforge.net/DTD/sodipodi-0.dtd"
   xmlns="http://www.w3.org/2000/svg"
   xmlns:svg="http://www.w3.org/2000/svg"><sodipodi:namedview
     id="namedview1"
     pagecolor="#ffffff"
     bordercolor="#000000"
     borderopacity="0"
     inkscape:showpageshadow="2"
     inkscape:pageopacity="0.0"
     inkscape:pagecheckerboard="0"
     inkscape:deskcolor="#d1d1d1"
     inkscape:document-units="mm"
     inkscape:zoom="2.3464948"
     inkscape:cx="94.396116"
     inkscape:cy="121.03159"
     inkscape:window-width="1470"
     inkscape:window-height="895"
     inkscape:window-x="0"
     inkscape:window-y="33"
     inkscape:window-maximized="0"
     inkscape:current-layer="g17"
     showguides="true"><inkscape:page
       x="0"
       y="0"
       width="47.474426"
       height="49.603542"
       id="page2"
       margin="0"
       bleed="0" /></sodipodi:namedview><defs
     id="defs1" /><g
     inkscape:label="Layer 1"
     inkscape:groupmode="layer"
     id="layer1"
     transform="translate(-63.23542,-14.816663)"><g
       transform="matrix(0.03527778,0,0,-0.03527778,-142.24224,162.57764)"
       fill="#000000"
       stroke="none"
       id="g17"><path
         d="m 4266.543,4031.2494 c -24,-25 -27,-35 -27,-103 v -75 l 75,-74 75,-74 v -176 -175 l -95,-95 -95,-95 v -66 c 0,-106 -33,-99 457,-99 487,0 453,-8 453,101 v 64 l -90,90 -90,90 v 180 181 l 70,69 70,69 v 86 c 0,77 -2,89 -23,108 -19,18 -35,22 -93,22 -75,0 -94,-9 -94,-47 0,-20 -5,-23 -35,-23 -30,0 -35,3 -35,23 0,41 -17,47 -130,47 -113,0 -130,-6 -130,-47 0,-20 -5,-23 -35,-23 -27,0 -35,4 -35,18 0,36 -32,52 -101,52 -58,0 -68,-3 -92,-28 z m 593,-347 v -35 l -202,2 -203,3 -3,33 -3,32 h 205 206 z m 0,-325 v -30 h -205 -205 v 30 30 h 205 205 z"
         id="path8" /><path
         d="m 6089.1991,3992.5077 c -25,-26 -27,-35 -27,-109 v -81 l 79,-69 80,-68 v -185 l 1,-185 -90,-90 -90,-90 v -70 c 0,-42 5,-76 12,-83 9,-9 120,-12 438,-12 493,0 460,-7 460,96 v 59 l -95,97 -95,97 v 179 180 l 80,68 80,69 v 86 c 0,80 -2,87 -28,112 -25,24 -35,27 -103,27 -84,0 -122,-20 -112,-60 5,-17 1,-20 -26,-20 -26,0 -31,4 -31,23 0,45 -28,57 -132,57 -103,0 -128,-12 -128,-58 0,-17 -6,-22 -25,-22 -20,0 -25,5 -25,23 0,43 -29,57 -116,57 -75,0 -82,-2 -107,-28 z m 163,-75 c 0,-36 19,-47 81,-47 76,0 89,6 89,41 v 29 h 70 c 66,0 70,-1 70,-23 0,-37 19,-47 92,-47 58,0 69,3 78,21 7,11 9,27 6,35 -4,11 7,14 53,14 67,0 71,-5 71,-78 0,-45 -2,-49 -60,-94 l -59,-48 h -248 -248 l -60,48 c -59,48 -60,50 -60,98 1,27 4,55 9,62 4,7 29,12 62,12 50,0 54,-2 54,-23 z m 450,-427 v -160 l -206,2 -205,3 -2,158 -2,157 h 208 207 z m 67,-272 c 29,-29 53,-55 53,-58 0,-3 -147,-4 -327,-2 l -327,3 54,54 54,55 h 220 220 z m 123,-163 v -35 h -395 -395 v 35 35 h 395 395 z"
         id="path13"
         style="fill:#000000;fill-opacity:1;stroke:#ffffff;stroke-width:150;stroke-dasharray:none;stroke-opacity:1;paint-order:stroke fill markers" /><rect
         style="fill:#ffffff;fill-opacity:1;fill-rule:nonzero;stroke:#8fffff;stroke-width:0;stroke-dasharray:none;stroke-opacity:1;paint-order:stroke fill markers"
         id="rect17"
         width="457.84866"
         height="903.04926"
         x="6267.2344"
         y="-3884.9539"
         transform="scale(1,-1)" /><rect
         style="fill:#ffffff;fill-opacity:1;fill-rule:nonzero;stroke:#8fffff;stroke-width:0;stroke-dasharray:none;stroke-opacity:1;paint-order:stroke fill markers"
         id="rect17-0"
         width="801.23517"
         height="127.44653"
         x="6097.1255"
         y="-3104.4604"
         transform="scale(1,-1)" /><rect
         style="fill:#ffffff;fill-opacity:1;fill-rule:nonzero;stroke:#8fffff;stroke-width:0;stroke-dasharray:none;stroke-opacity:1;paint-order:stroke fill markers"
         id="rect17-0-0"
         width="113.13635"
         height="127.44653"
         x="6199.9282"
         y="-3269.2234"
         transform="scale(1,-1)" /><rect
         style="fill:#ffffff;fill-opacity:1;fill-rule:nonzero;stroke:#8fffff;stroke-width:0;stroke-dasharray:none;stroke-opacity:1;paint-order:stroke fill markers"
         id="rect17-0-0-6"
         width="113.13635"
         height="127.44653"
         x="6656.0991"
         y="-3270.3936"
         transform="scale(1,-1)" /><rect
         style="fill:#ffffff;fill-opacity:1;fill-rule:nonzero;stroke:#8fffff;stroke-width:0;stroke-dasharray:none;stroke-opacity:1;paint-order:stroke fill markers"
         id="rect17-0-0-6-1"
         width="113.13635"
         height="127.44653"
         x="6162.1177"
         y="-3210.2769"
         transform="scale(1,-1)" /><rect
         style="fill:#ffffff;fill-opacity:1;fill-rule:nonzero;stroke:#8fffff;stroke-width:0;stroke-dasharray:none;stroke-opacity:1;paint-order:stroke fill markers"
         id="rect17-0-0-6-2"
         width="113.13635"
         height="127.44653"
         x="6717.5962"
         y="-3216.074"
         transform="scale(1,-1)" /><rect
         style="fill:#ffffff;fill-opacity:1;fill-rule:nonzero;stroke:#8fffff;stroke-width:0;stroke-dasharray:none;stroke-opacity:1;paint-order:stroke fill markers"
         id="rect17-7"
         width="765.18164"
         height="145.1804"
         x="6102.8198"
         y="-3938.4766"
         transform="scale(1,-1)" /><rect
         style="fill:#ffffff;fill-opacity:1;fill-rule:nonzero;stroke:#8fffff;stroke-width:0;stroke-dasharray:none;stroke-opacity:1;paint-order:stroke fill markers"
         id="rect17-7-6"
         width="147.3511"
         height="145.1804"
         x="6117.0127"
         y="-3964.9814"
         transform="scale(1,-1)" /><rect
         style="fill:#ffffff;fill-opacity:1;fill-rule:nonzero;stroke:#8fffff;stroke-width:0;stroke-dasharray:none;stroke-opacity:1;paint-order:stroke fill markers"
         id="rect17-7-6-6"
         width="181.82234"
         height="145.1804"
         x="6411.6943"
         y="-3970.5452"
         transform="scale(1,-1)" /><rect
         style="fill:#ffffff;fill-opacity:1;fill-rule:nonzero;stroke:#8fffff;stroke-width:0;stroke-dasharray:none;stroke-opacity:1;paint-order:stroke fill markers"
         id="rect17-7-6-6-9"
         width="181.82234"
         height="145.1804"
         x="6698.397"
         y="-3977.1741"
         transform="scale(1,-1)" /><rect
         style="fill:#ffffff;fill-opacity:1;fill-rule:nonzero;stroke:#8fffff;stroke-width:0;stroke-dasharray:none;stroke-opacity:1;paint-order:stroke fill markers"
         id="rect17-7-6-6-9-3"
         width="181.82234"
         height="145.1804"
         x="6634.9795"
         y="-3853.4573"
         transform="scale(1,-1)" /><rect
         style="fill:#ffffff;fill-opacity:1;fill-rule:nonzero;stroke:#8fffff;stroke-width:0;stroke-dasharray:none;stroke-opacity:1;paint-order:stroke fill markers"
         id="rect17-7-6-6-9-3-7"
         width="181.82234"
         height="145.1804"
         x="6188.2178"
         y="-3848.8032"
         transform="scale(1,-1)" /><rect
         style="fill:#ffffff;fill-opacity:1;fill-rule:nonzero;stroke:#8fffff;stroke-width:0;stroke-dasharray:none;stroke-opacity:1;paint-order:stroke fill markers"
         id="rect17-7-6-6-9-3-7-4"
         width="181.82234"
         height="145.1804"
         x="6150.4692"
         y="-3896.5327"
         transform="scale(1,-1)" /><rect
         style="fill:#ffffff;fill-opacity:1;fill-rule:nonzero;stroke:#8fffff;stroke-width:0;stroke-dasharray:none;stroke-opacity:1;paint-order:stroke fill markers"
         id="rect17-7-6-6-9-3-7-4-1"
         width="181.82234"
         height="145.1804"
         x="6670.7612"
         y="-3906.6064"
         transform="scale(1,-1)" /><path
         d="m 6088.5512,3992.7854 c -25,-26 -27,-35 -27,-109 v -81 l 79,-69 80,-68 v -185 l 1,-185 -90,-90 -90,-90 v -70 c 0,-42 5,-76 12,-83 9,-9 120,-12 438,-12 493,0 460,-7 460,96 v 59 l -95,97 -95,97 v 179 180 l 80,68 80,69 v 86 c 0,80 -2,87 -28,112 -25,24 -35,27 -103,27 -84,0 -122,-20 -112,-60 5,-17 1,-20 -26,-20 -26,0 -31,4 -31,23 0,45 -28,57 -132,57 -103,0 -128,-12 -128,-58 0,-17 -6,-22 -25,-22 -20,0 -25,5 -25,23 0,43 -29,57 -116,57 -75,0 -82,-2 -107,-28 z m 163,-75 c 0,-36 19,-47 81,-47 76,0 89,6 89,41 v 29 h 70 c 66,0 70,-1 70,-23 0,-37 19,-47 92,-47 58,0 69,3 78,21 7,11 9,27 6,35 -4,11 7,14 53,14 67,0 71,-5 71,-78 0,-45 -2,-49 -60,-94 l -59,-48 h -248 -248 l -60,48 c -59,48 -60,50 -60,98 1,27 4,55 9,62 4,7 29,12 62,12 50,0 54,-2 54,-23 z m 450,-427 v -160 l -206,2 -205,3 -2,158 -2,157 h 208 207 z m 67,-272 c 29,-29 53,-55 53,-58 0,-3 -147,-4 -327,-2 l -327,3 54,54 54,55 h 220 220 z m 123,-163 v -35 h -395 -395 v 35 35 h 395 395 z"
         id="path13-2"
         style="fill:#000000;fill-opacity:1;stroke:#8fffff;stroke-width:0;stroke-dasharray:none;stroke-opacity:1;paint-order:stroke fill markers" /></g></g></svg>
